<?xml version="1.0" standalone="no"?>
<!DOCTYPE svg PUBLIC "-//W3C//DTD SVG 20010904//EN"
 "http://www.w3.org/TR/2001/REC-SVG-20010904/DTD/svg10.dtd">
<svg version="1.0" xmlns="http://www.w3.org/2000/svg"
 width="346.000000pt" height="316.000000pt" viewBox="0 0 346.000000 316.000000"
 preserveAspectRatio="xMidYMid meet">

<g transform="translate(0.000000,316.000000) scale(0.100000,-0.100000)"
fill="#000000" stroke="none">
<path d="M1700 2744 c-142 -18 -308 -65 -439 -125 -258 -120 -500 -364 -601
-607 -62 -146 -83 -251 -84 -412 -1 -153 8 -211 51 -345 123 -389 496 -708
933 -800 51 -11 134 -15 296 -15 247 0 311 8 462 62 78 27 286 127 279 134 -1
2 -47 -12 -102 -31 -136 -47 -253 -65 -410 -65 -214 0 -383 39 -565 130 -289
145 -488 385 -572 688 -32 115 -32 353 0 472 92 339 357 617 710 744 250 90
550 94 815 12 42 -13 77 -22 77 -19 0 7 -181 89 -250 113 -128 44 -237 61
-405 65 -88 2 -176 1 -195 -1z"/>
<path d="M1991 2282 c-49 -24 -71 -60 -77 -123 -6 -66 15 -113 65 -146 64 -43
164 -24 196 37 19 37 20 37 -12 45 -22 5 -31 1 -50 -24 -31 -39 -73 -42 -108
-6 -21 20 -25 34 -25 80 0 46 4 60 25 80 31 32 69 32 101 -1 21 -20 32 -24 55
-19 34 8 35 12 13 44 -35 49 -122 65 -183 33z"/>
<path d="M2315 2281 c-55 -34 -69 -57 -73 -126 -4 -52 0 -70 17 -98 45 -73
161 -89 221 -32 17 16 30 37 30 47 0 22 -52 38 -58 18 -9 -26 -43 -50 -70 -50
-80 0 -112 137 -45 190 35 27 69 25 99 -5 18 -19 31 -24 50 -19 29 8 31 27 4
54 -43 43 -124 53 -175 21z"/>
<path d="M1550 2140 l0 -151 28 3 27 3 0 97 c0 53 3 99 6 102 3 3 11 -17 18
-46 6 -28 18 -75 27 -105 14 -48 18 -53 44 -53 31 0 36 10 71 153 19 79 29 64
29 -48 l0 -106 28 3 27 3 3 148 3 148 -53 -3 -53 -3 -26 -95 c-15 -55 -29 -89
-33 -80 -3 8 -16 51 -29 95 l-23 80 -47 3 -47 3 0 -151z"/>
<path d="M1636 1810 c-52 -26 -73 -46 -104 -99 -51 -88 -21 -231 71 -337 40
-45 353 -287 372 -287 20 0 333 242 375 290 51 58 79 118 93 196 10 58 9 67
-15 119 -43 93 -120 137 -244 138 -55 0 -81 -5 -121 -25 -28 -14 -58 -34 -68
-45 -17 -19 -18 -19 -51 6 -83 63 -228 84 -308 44z"/>
<path d="M1361 1451 c-10 -17 1 -271 14 -326 2 -11 49 -65 105 -119 93 -92
100 -102 100 -138 l0 -39 118 3 117 3 -2 80 c-1 101 -16 158 -51 195 -35 38
-201 150 -222 150 -17 0 -40 -19 -40 -33 0 -5 32 -42 71 -83 51 -51 70 -78 65
-90 -6 -15 -8 -15 -34 2 -15 10 -55 40 -89 67 -70 56 -70 55 -76 207 -2 53 -9
106 -16 118 -14 27 -47 29 -60 3z"/>
<path d="M2551 1447 c-5 -13 -12 -70 -16 -128 -3 -57 -8 -113 -10 -125 -5 -23
-143 -141 -171 -146 -40 -7 -23 30 36 82 68 59 84 82 75 110 -11 34 -46 22
-155 -53 -76 -52 -110 -83 -123 -109 -19 -40 -44 -206 -34 -232 5 -13 25 -16
122 -16 l115 0 0 37 c0 34 9 47 106 144 l106 106 10 162 c8 125 7 165 -2 176
-19 22 -49 18 -59 -8z"/>
</g>
</svg>
